<!-- Generated by IcoMoon.io -->
<svg version="1.1" xmlns="http://www.w3.org/2000/svg" width="28" height="28" viewBox="0 0 1024 1024" fill="ffffff">
<title></title>
<g id="icomoon-ignore">
</g>
<path d="M511.987 14.224c-274.775 0-497.779 223.004-497.779 497.776s223.004 497.779 497.779 497.779c274.773 0 497.775-223.006 497.775-497.779 0-274.772-223.002-497.776-497.775-497.776zM511.987 213.335c96.068 0 174.221 78.151 174.221 174.222 0 96.070-78.153 174.222-174.221 174.222-96.072 0-174.223-78.153-174.223-174.222 0-96.071 78.151-174.222 174.223-174.222zM511.987 910.225c-101.050 0-220.517-40.819-305.637-143.36 87.191-68.412 194.811-105.591 305.637-105.591 110.822 0 218.445 37.18 305.634 105.591-85.12 102.541-204.587 143.36-305.634 143.36z"></path>
</svg>
