<!-- Generated by IcoMoon.io -->
<svg version="1.1" xmlns="http://www.w3.org/2000/svg" width="20" height="20" viewBox="0 0 977 1024">
<title></title>
<g id="icomoon-ignore">
</g>
<path fill="#000" d="M577.629 512.009l385.862-385.862c7.624-8.905 11.608-20.358 11.157-32.073s-5.311-22.826-13.601-31.116c-8.29-8.289-19.4-13.145-31.116-13.598-11.711-0.452-23.166 3.532-32.070 11.158l-385.862 385.862-385.863-386.327c-8.765-8.765-20.652-13.689-33.047-13.689s-24.282 4.924-33.047 13.689c-8.765 8.765-13.689 20.652-13.689 33.047s4.924 24.282 13.689 33.047l386.327 385.862-386.327 385.862c-4.872 4.17-8.83 9.309-11.623 15.081-2.794 5.776-4.364 12.065-4.611 18.474s0.833 12.805 3.173 18.776c2.34 5.972 5.889 11.399 10.425 15.933 4.536 4.538 9.961 8.085 15.934 10.426s12.365 3.421 18.776 3.174c6.41-0.247 12.7-1.82 18.474-4.613s10.91-6.749 15.082-11.622l386.329-385.862 385.862 385.862c8.904 7.624 20.359 11.608 32.070 11.157 11.715-0.451 22.826-5.311 31.116-13.601 8.29-8.285 13.149-19.4 13.601-31.116 0.451-11.711-3.533-23.166-11.157-32.070l-385.862-385.862z"></path>
</svg>
