<!-- Generated by IcoMoon.io -->
<svg version="1.1" xmlns="http://www.w3.org/2000/svg" width="1024" height="1024" viewBox="0 0 1024 1024">
<title></title>
<g id="icomoon-ignore">
</g>
<path stroke-linejoin="miter" stroke-linecap="butt" stroke-miterlimit="4" stroke-width="56.8889" d="M870.679 373.837l0.011-0.010c4.506-4.507 11.816-4.515 16.338 0.005l89.572 89.57c27.881 27.884 27.881 73.312 0 101.196l-89.572 89.568c-2.27 2.27-5.171 3.391-8.175 3.391-2.992 0-5.899-1.121-8.169-3.391h-0.006c-4.511-4.511-4.511-11.822 0-16.327l112.27-112.283h-548.949c-6.385 0-11.556-5.171-11.556-11.555s5.171-11.556 11.556-11.556h548.949l-112.27-112.282c-4.511-4.508-4.511-11.818 0-16.326zM695.558 783.997v80.003c0 72.516-59.039 131.556-131.558 131.556h-402c-72.517 0-131.556-59.039-131.556-131.556v-704c0-72.517 59.038-131.556 131.556-131.556h402c72.519 0 131.558 59.038 131.558 131.556v80c0 6.384-5.171 11.556-11.56 11.556-6.383 0-11.554-5.172-11.554-11.556v-80c0-59.819-48.623-108.444-108.444-108.444h-402c-59.819 0-108.445 48.626-108.445 108.444v704c0 59.819 48.625 108.447 108.445 108.447h402c59.821 0 108.444-48.629 108.444-108.447v-80.003c0-6.383 5.171-11.554 11.554-11.554 6.389 0 11.56 5.171 11.56 11.554z"></path>
</svg>
