<!-- Generated by IcoMoon.io -->
<svg version="1.1" xmlns="http://www.w3.org/2000/svg" width="30" height="20" viewBox="0 0 1536 1024">
<title></title>
<g id="icomoon-ignore">
</g>
<path fill="#000" d="M0 938.665c0 47.13 38.205 85.335 85.334 85.335h1365.331c47.13 0 85.335-38.205 85.335-85.335 0-47.124-38.205-85.33-85.335-85.33h-1365.331c-47.128 0-85.334 38.205-85.334 85.33zM0 512c0 47.13 38.205 85.335 85.334 85.335h1365.331c47.13 0 85.335-38.205 85.335-85.335s-38.205-85.334-85.335-85.334h-1365.331c-47.128 0-85.334 38.205-85.334 85.334zM85.334 0c-47.128 0-85.334 38.205-85.334 85.334s38.205 85.333 85.334 85.333h1365.331c47.13 0 85.335-38.205 85.335-85.333s-38.205-85.334-85.335-85.334h-1365.331z"></path>
</svg>
