<svg version="1.1" xmlns="http://www.w3.org/2000/svg" width="1024" height="1024" viewBox="0 0 1024 1024">
<title></title>
<g id="icomoon-ignore">
</g>
<path d="M440.889 156.444h142.222c0-18.86-7.492-36.947-20.828-50.283s-31.423-20.828-50.283-20.828c-18.86 0-36.947 7.492-50.283 20.828s-20.828 31.423-20.828 50.283zM369.778 156.444c0-37.72 14.984-73.895 41.656-100.566s62.847-41.656 100.566-41.656c37.72 0 73.893 14.984 100.568 41.656 26.67 26.672 41.654 62.847 41.654 100.566h284.444c9.432 0 18.472 3.746 25.139 10.414 6.673 6.668 10.416 15.712 10.416 25.141s-3.743 18.474-10.416 25.141c-6.667 6.668-15.707 10.414-25.139 10.414h-40.107l-85.692 628.48c-5.808 42.593-26.857 81.636-59.238 109.898-32.387 28.268-73.916 43.844-116.901 43.844h-249.458c-42.985 0-84.515-15.576-116.899-43.844-32.385-28.262-53.431-67.305-59.243-109.898l-85.689-628.48h-40.107c-9.43 0-18.474-3.746-25.141-10.414s-10.414-15.712-10.414-25.141c0-9.43 3.746-18.474 10.414-25.141s15.712-10.414 25.141-10.414h284.444zM440.889 405.333c0-9.43-3.746-18.474-10.414-25.141s-15.712-10.414-25.141-10.414c-9.43 0-18.474 3.746-25.141 10.414s-10.414 15.712-10.414 25.141v355.556c0 9.432 3.746 18.472 10.414 25.139 6.668 6.673 15.712 10.416 25.141 10.416s18.474-3.743 25.141-10.416c6.668-6.667 10.414-15.707 10.414-25.139v-355.556zM618.667 369.778c-9.432 0-18.472 3.746-25.139 10.414-6.673 6.668-10.416 15.712-10.416 25.141v355.556c0 9.432 3.743 18.472 10.416 25.139 6.667 6.673 15.707 10.416 25.139 10.416s18.472-3.743 25.139-10.416c6.673-6.667 10.416-15.707 10.416-25.139v-355.556c0-9.43-3.743-18.474-10.416-25.141-6.667-6.668-15.707-10.414-25.139-10.414z"></path>
</svg>
