<!-- Generated by IcoMoon.io -->
<svg version="1.1" xmlns="http://www.w3.org/2000/svg" width="970" height="1024" viewBox="0 0 970 1024">
<title></title>
<g id="icomoon-ignore">
</g>
<path d="M485.070 415.421c-80.615 0-145.965 65.351-145.965 145.963 0 80.616 65.351 145.969 145.965 145.969s145.967-65.353 145.967-145.969c0-80.612-65.353-145.963-145.967-145.963z"></path>
<path d="M361.561 11.211c-62.011 0-112.281 50.27-112.281 112.281v8.020c0 20.375-16.518 36.892-36.893 36.892-116.049 0-210.125 94.076-210.125 210.125v207.081c0 72.014-0.001 128.463 4.288 173.568 4.371 45.967 13.433 83.607 33.767 116.79 21.294 34.751 50.51 63.962 85.258 85.256 33.182 20.334 70.823 29.4 116.793 33.77 45.1 4.285 101.552 4.285 173.562 4.285h138.274c72.014 0 128.469 0 173.568-4.285 45.967-4.371 83.607-13.436 116.79-33.77 34.751-21.294 63.968-50.505 85.261-85.256 20.334-33.183 29.394-70.823 33.765-116.79 4.29-45.105 4.29-101.554 4.29-173.563v-207.086c0-116.049-94.079-210.125-210.13-210.125-20.372 0-36.891-16.517-36.891-36.892v-8.020c0-62.011-50.268-112.281-112.279-112.281h-247.018zM271.737 561.384c0-117.819 95.513-213.331 213.334-213.331 117.823 0 213.335 95.512 213.335 213.331 0 117.825-95.512 213.337-213.335 213.337-117.821 0-213.334-95.512-213.334-213.337zM754.542 426.649c-24.802 0-44.91-20.108-44.91-44.912s20.108-44.913 44.91-44.913c24.808 0 44.916 20.108 44.916 44.913s-20.108 44.912-44.916 44.912z"></path>
</svg>
