<!DOCTYPE svg PUBLIC "-//W3C//DTD SVG 1.1//EN" "http://www.w3.org/Graphics/SVG/1.1/DTD/svg11.dtd">

<svg fill="#111111" width="256px" height="256px" viewBox="-2.4 -2.4 28.80 28.80" id="upload-alt-3" data-name="Flat Line" xmlns="http://www.w3.org/2000/svg" class="icon flat-line" stroke="#111111" transform="matrix(1, 0, 0, 1, 0, 0)">

<g id="SVGRepo_bgCarrier" stroke-width="0"/>

<g id="SVGRepo_iconCarrier">

<path id="secondary" d="M21,13v7a1,1,0,0,1-1,1H4a1,1,0,0,1-1-1V13H8a4,4,0,0,0,8,0Z" style="fill: #F59256; stroke-width:1.344;"/>

<polyline id="primary" points="15 6 12 3 9 6" style="fill: none; stroke: #000000; stroke-linecap: round; stroke-linejoin: round; stroke-width:1.344;"/>

<line id="primary-2" data-name="primary" x1="21" y1="13" x2="18" y2="4" style="fill: none; stroke: #000000; stroke-linecap: round; stroke-linejoin: round; stroke-width:1.344;"/>

<line id="primary-3" data-name="primary" x1="3" y1="13" x2="6" y2="4" style="fill: none; stroke: #000000; stroke-linecap: round; stroke-linejoin: round; stroke-width:1.344;"/>

<path id="primary-4" data-name="primary" d="M12,11V3m4,10a4,4,0,0,1-8,0H3v7a1,1,0,0,0,1,1H20a1,1,0,0,0,1-1V13Z" style="fill: none; stroke: #000000; stroke-linecap: round; stroke-linejoin: round; stroke-width:1.344;"/>

</g>

</svg>