<!-- Generated by IcoMoon.io -->
<svg version="1.1" xmlns="http://www.w3.org/2000/svg" width="1024" height="1024" viewBox="0 0 1024 1024">
<title></title>
<g id="icomoon-ignore">
</g>
<path d="M101.395 972.74c-6.964-0.012-13.849-1.47-20.219-4.289-6.369-2.813-12.082-6.927-16.776-12.071-4.779-5.102-8.425-11.156-10.7-17.763s-3.127-13.625-2.501-20.588l12.298-135.228 568.118-567.918 177.544 177.494-567.967 567.865-135.228 12.3c-1.519 0.139-3.043 0.205-4.568 0.199zM844.601 356.887l-177.495-177.494 106.466-106.466c4.662-4.667 10.198-8.369 16.294-10.895 6.090-2.526 12.625-3.826 19.221-3.826s13.125 1.3 19.221 3.826c6.096 2.526 11.631 6.228 16.294 10.895l106.466 106.466c4.662 4.662 8.367 10.198 10.891 16.292 2.53 6.094 3.831 12.625 3.831 19.222s-1.301 13.128-3.831 19.222c-2.524 6.094-6.228 11.63-10.891 16.292l-106.466 106.466z"></path>
</svg>
