<svg width="25" height="17" viewBox="0 0 25 17" fill="none" xmlns="http://www.w3.org/2000/svg">
<path fill-rule="evenodd" clip-rule="evenodd" d="M3.65805 15.6351C3.46918 15.4336 3.47939 15.1172 3.68084 14.9283L5.14284 13.5577C3.60234 12.4908 1.96571 11.0897 0.160583 9.367C-0.0414747 9.18022 -0.0546709 8.86504 0.131448 8.662C2.45678 6.12537 4.49412 4.20957 6.39685 2.93C8.3049 1.64685 10.1041 0.985671 11.9426 1.00008C13.57 1.01284 15.1748 1.55449 16.8602 2.57265L18.9513 0.612283C19.1528 0.423418 19.4692 0.433625 19.658 0.635081C19.8171 0.804716 19.835 1.05586 19.7164 1.24373L4.77659 15.2498C4.74985 15.2748 4.72793 15.3031 4.71085 15.3334L4.36479 15.6579C4.16333 15.8467 3.84691 15.8365 3.65805 15.6351ZM6.61184 14.4887C8.45438 15.5416 10.1851 16.0742 11.9421 16.0621C15.5685 16.0373 19.1358 13.6917 23.8572 9.37014L23.8667 9.3613C24.0663 9.17049 24.0735 8.85399 23.8826 8.65437C21.8273 6.5043 19.9975 4.79103 18.2941 3.53658L17.5517 4.23266C19.1295 5.37361 20.8477 6.95194 22.8046 8.97589C18.2712 13.0749 15.0526 15.0408 11.9353 15.0622C10.4714 15.0722 8.99403 14.6532 7.37734 13.7711L6.61184 14.4887ZM9.07398 12.1805C9.89661 12.7157 10.9074 13.0311 12 13.0311C14.7614 13.0311 17 11.0164 17 8.5311C17 7.4818 16.601 6.51639 15.932 5.75107L15.2005 6.43691C15.7079 7.0336 16 7.76739 16 8.5311C16 10.3676 14.3109 12.0311 12 12.0311C11.1828 12.0311 10.4433 11.823 9.82878 11.4729L9.07398 12.1805ZM5.89011 12.8572L7.84031 11.0288C7.30952 10.3142 7.00002 9.4552 7.00002 8.5311C7.00002 6.04582 9.23859 4.0311 12 4.0311C12.9537 4.0311 13.8451 4.27142 14.6034 4.68845L16.1003 3.28506C14.6166 2.42785 13.2613 2.01045 11.9348 2.00005C10.3583 1.98769 8.7543 2.54972 6.95489 3.75981C5.23768 4.91463 3.3668 6.64328 1.2019 8.97632C2.9337 10.6078 4.47259 11.8949 5.89011 12.8572ZM8.57841 10.3369L13.8285 5.41489C13.2888 5.17117 12.6706 5.0311 12 5.0311C9.68917 5.0311 8.00002 6.6946 8.00002 8.5311C8.00002 9.17585 8.20821 9.79927 8.57841 10.3369Z" fill="#535353"/>
</svg>
