<svg width="25" height="17" viewBox="0 0 25 17" fill="none" xmlns="http://www.w3.org/2000/svg">
    <path fill-rule="evenodd" clip-rule="evenodd"
        d="M6.95488 3.72893C5.23767 4.88375 3.36679 6.61241 1.20189 8.94545C1.34257 9.07797 1.48198 9.20823 1.62015 9.33623L0.160574 9.33612C-0.0414831 9.14934 -0.0546793 8.83416 0.13144 8.63113C2.45677 6.09449 4.49411 4.1787 6.39684 2.89912C8.30489 1.61597 10.1041 0.954794 11.9426 0.969203C13.7794 0.983599 15.5875 1.67176 17.5151 2.95838C19.4387 4.24235 21.5105 6.142 23.8826 8.6235C24.0735 8.82311 24.0663 9.13961 23.8667 9.33042L23.8588 9.33781L22.3669 9.33771C22.5115 9.20905 22.6573 9.07816 22.8046 8.94501C20.6004 6.66526 18.699 4.95089 16.9599 3.79012C15.1321 2.57011 13.5132 1.98154 11.9348 1.96917C10.3583 1.95682 8.75429 2.51884 6.95488 3.72893ZM22.3662 9.33837L23.858 9.33852C19.1362 13.6605 15.5687 16.0064 11.9421 16.0313C8.3094 16.0562 4.78885 13.753 0.160574 9.33612L1.6202 9.33627C5.8484 13.253 8.92047 15.0519 11.9353 15.0313C14.9512 15.0106 18.0618 13.1699 22.3662 9.33837ZM16.9136 9.33782L22.3662 9.33837C22.3664 9.33815 22.3667 9.33793 22.3669 9.33771L16.9137 9.33732C16.9704 9.06609 17 8.78627 17 8.50022C17 6.01494 14.7614 4.00022 12 4.00022C9.23858 4.00022 7.00001 6.01494 7.00001 8.50022C7.00001 8.78603 7.02961 9.06561 7.08621 9.33662L1.62015 9.33623C1.62017 9.33624 1.62019 9.33626 1.6202 9.33627L7.08626 9.33682C7.52192 11.4223 9.55622 13.0002 12 13.0002C14.4434 13.0002 16.4774 11.4228 16.9136 9.33782ZM15.8819 9.33724C15.9593 9.06612 16 8.78525 16 8.50022C16 6.66373 14.3109 5.00022 12 5.00022C9.68916 5.00022 8.00001 6.66373 8.00001 8.50022C8.00001 8.78506 8.04064 9.06574 8.11793 9.33669L15.8819 9.33724ZM8.11799 9.33693L15.8818 9.33771C15.4604 10.8133 13.952 12.0002 12 12.0002C10.0477 12.0002 8.53909 10.8128 8.11799 9.33693Z" />
</svg>